<?xml version="1.0" encoding="iso-8859-1"?>
<!-- Uploaded to: SVG Repo, www.svgrepo.com, Generator: SVG Repo Mixer Tools -->
<svg version="1.1" id="Layer_1" xmlns="http://www.w3.org/2000/svg" xmlns:xlink="http://www.w3.org/1999/xlink" 
	 viewBox="0 0 508.497 508.497" xml:space="preserve">
<circle style="fill:#FD8469;" cx="254.248" cy="254.192" r="217.007"/>
<g>
	<path style="fill:#FFD05B;" d="M254.248,107.713L254.248,107.713L254.248,107.713z"/>
	<path style="fill:#FFD05B;" d="M267.472,64.65l-13.224-0.678l0,0l0,0l0,0l0,0l-13.224,0.678c0,0,1.017,11.868-4.747,22.379v14.919
		l17.971,5.764l0,0l0,0l17.293-5.425V85.673C266.794,75.501,267.472,64.65,267.472,64.65z"/>
	<path style="fill:#FFD05B;" d="M254.248,107.713L254.248,107.713L254.248,107.713z"/>
	<path style="fill:#FFD05B;" d="M254.248,107.713L254.248,107.713L254.248,107.713z"/>
	<path style="fill:#FFD05B;" d="M268.829,102.966l2.713-17.293c-1.017-2.034-1.695-4.408-2.374-6.442
		c-0.339-1.695-0.678-3.391-1.017-4.747h-27.804c-0.339,1.695-0.678,3.391-1.356,5.425c-0.678,2.374-1.695,5.086-3.052,7.46
		l3.73,15.936h29.16V102.966z"/>
	<path style="fill:#FFD05B;" d="M254.248,107.713L254.248,107.713L254.248,107.713z"/>
</g>
<rect x="235.599" y="102.287" style="fill:#E6E9EE;" width="36.959" height="85.107"/>
<polygon style="fill:#FF7058;" points="265.438,160.608 254.248,190.785 243.059,160.608 250.519,109.408 257.639,109.408 "/>
<polygon style="fill:#F1543F;" points="257.639,109.408 250.519,109.408 248.823,102.287 259.674,102.287 "/>
<g>
	<path style="fill:#FFFFFF;" d="M270.863,83.638c0,0,7.46,7.46-2.034,28.821c0,0-10.172-11.868-16.954-9.494
		C252.214,102.966,267.472,98.558,270.863,83.638z"/>
	<path style="fill:#FFFFFF;" d="M237.295,83.638c0,0-7.46,7.46,2.034,28.821c0,0,10.172-11.868,16.954-9.494
		C255.944,102.966,241.025,98.558,237.295,83.638z"/>
</g>
<polygon style="fill:#2B3B4E;" points="302.397,492.899 307.483,304.036 304.092,253.853 253.57,253.853 253.57,333.196 
	273.576,492.899 "/>
<polygon style="fill:#324A5E;" points="234.921,492.899 254.927,333.196 254.927,253.853 204.405,253.853 201.014,304.036 
	206.1,492.899 "/>
<path style="fill:#2B3B4E;" d="M337.66,212.147c0.678,7.799-2.374,15.597-7.799,21.023c-5.086,5.425-12.885,12.207-23.057,18.649
	c-4.747,3.052-10.172,6.103-16.276,9.155l-9.833-27.126l23.057-15.597l10.511-7.121l-8.477-27.126
	c3.73-36.281,11.868-70.527,11.868-70.527S333.252,149.08,337.66,212.147z"/>
<path style="fill:#324A5E;" d="M273.576,89.064c0,0,7.121,17.632,44.079,24.413c0,0-23.396,99.348-9.833,142.75
	c0,0,7.121,45.436,4.747,57.303c0,0-34.585,16.615-52.217-3.391c0,0-15.597-85.785-7.121-121.727
	C253.57,188.073,264.421,172.815,273.576,89.064z"/>
<path style="fill:#2B3B4E;" d="M234.921,89.064c0,0-7.121,17.632-44.079,24.413c0,0,23.396,99.348,9.833,142.75
	c0,0-7.121,45.436-4.747,57.303c0,0,34.585,16.615,52.217-3.391c0,0,15.597-85.785,7.121-121.727
	C254.927,188.073,244.076,172.815,234.921,89.064z"/>
<path style="fill:#324A5E;" d="M312.908,313.53c0,0-34.585,16.615-52.217-3.391c0,0-15.258-84.09-7.121-120.71
	c0-0.339,0-0.678,0.339-1.017c0,0,10.511-15.258,19.666-99.009c0,0,3.052,7.121,14.919,14.241
	c6.781,4.069,15.936,7.799,29.499,10.172c0,0-8.138,33.907-11.868,70.866c-1.356,11.528-2.034,23.057-2.034,34.246l-23.057,15.597
	l9.833,27.126c6.103-2.713,11.528-5.764,16.276-9.155C307.144,253.514,315.281,301.323,312.908,313.53z"/>
<path style="fill:#2B3B4E;" d="M292.564,114.494c0,0-14.241,54.252-39.332,74.596c0-0.339,0-0.678,0.339-1.017
	c0,0,10.511-15.258,19.666-99.009c0,0,3.052,7.121,14.919,14.241l-7.799,8.816L292.564,114.494z"/>
<path style="fill:#324A5E;" d="M215.933,114.494c0,0,14.241,54.252,39.332,74.596c0-0.339,0-0.678-0.339-1.017
	c0,0-10.511-15.258-19.666-99.009c0,0-3.052,7.121-14.919,14.241l7.799,8.816L215.933,114.494z"/>
<g>
	<path style="fill:#2B3B4E;" d="M263.742,201.975c0,2.374-1.695,4.408-4.069,4.408c-2.034,0-4.069-2.034-4.069-4.408
		c0-2.374,1.695-4.408,4.069-4.408C262.047,197.567,264.082,199.601,263.742,201.975z"/>
	<circle style="fill:#2B3B4E;" cx="260.352" cy="249.784" r="4.408"/>
	<circle style="fill:#2B3B4E;" cx="260.352" cy="219.268" r="4.408"/>
</g>
<path style="fill:#324A5E;" d="M302.397,492.899h-28.821v11.868c0,2.034,1.695,3.73,3.73,3.73h38.654v-1.695
	C315.96,499.003,309.856,492.899,302.397,492.899z"/>
<path style="fill:#2B3B4E;" d="M206.1,492.899h28.821v11.868c0,2.034-1.695,3.73-3.73,3.73h-38.654v-1.695
	C192.537,499.003,198.64,492.899,206.1,492.899z"/>
<g>
	<path style="fill:#FFD05B;" d="M260.352,277.249l-29.838,3.052c-1.356,0-2.713-0.339-3.73-1.356
		c-0.339-0.339-0.678-0.678-0.678-1.356l-7.46-19.666c-0.678-1.695-1.695-3.052-3.052-4.408l-11.528-10.511l7.799-15.597
		l21.701,15.936l9.494,6.442l-2.373,4.408l-7.121-2.034l2.034,10.511l1.017,5.425l23.057,0.678c1.017,0,2.034,0.339,2.713,1.017
		C265.438,272.163,263.742,276.91,260.352,277.249z"/>
	<path style="fill:#FFD05B;" d="M242.72,254.531l-2.034-0.678l2.373-4.408l1.356,1.017
		C246.789,251.819,245.432,255.209,242.72,254.531z"/>
</g>
<path style="fill:#324A5E;" d="M170.836,212.147c-0.678,7.799,2.374,15.597,7.799,21.023c5.086,5.425,28.821,24.413,39.332,27.804
	l9.833-27.126l-33.229-22.718l8.477-27.126c-4.069-36.281-12.207-70.527-12.207-70.527S175.244,149.08,170.836,212.147z"/>
<g>
	
		<rect x="259.59" y="258.079" transform="matrix(0.8696 0.4938 -0.4938 0.8696 176.7765 -96.5248)" style="fill:#FFFFFF;" width="23.057" height="56.626"/>
	
		<rect x="258.828" y="255.356" transform="matrix(0.8696 0.4938 -0.4938 0.8696 175.3324 -96.5036)" style="fill:#FFFFFF;" width="23.057" height="56.626"/>
</g>
<path style="fill:#84DBFF;" d="M290.19,260.974l-29.499,52.556l-36.281-20.683c-2.374-1.356-3.391-4.408-2.034-6.781l4.069-7.46
	c1.017,1.017,2.374,1.695,3.73,1.356l29.838-3.052c3.73-0.339,5.086-4.747,2.374-7.121c-0.678-0.678-1.695-1.017-2.713-1.017
	l-23.057-0.678l-1.017-5.425l4.747-8.477l2.374-4.408l4.069-7.121c1.356-2.374,4.408-3.391,6.781-2.034L290.19,260.974z"/>
<path style="fill:#F9B54C;" d="M240.346,74.484c-0.339,1.356-0.678,3.052-1.017,4.747c2.713,3.052,8.138,5.086,14.58,5.086
	c6.781,0,12.546-2.374,15.258-5.764c-0.339-1.356-0.678-2.713-0.678-4.069C268.489,74.484,240.346,74.484,240.346,74.484z"/>
<g>
	<path style="fill:#FFD05B;" d="M253.909,21.927h-25.091l4.069,42.045c0.339,3.052,1.356,5.764,3.391,8.138l3.391,4.069
		c2.373,3.052,5.764,4.747,9.494,5.425l2.373,0.339c1.356,0.339,2.713,0.339,4.069,0l2.374-0.339
		c3.73-0.678,7.121-2.374,9.494-5.425l3.391-4.069c2.034-2.374,3.052-5.086,3.391-8.138l4.747-42.045H253.909z"/>
	<path style="fill:#FFD05B;" d="M281.713,46.68c-1.356,3.052-4.069,5.086-6.103,4.408c-2.034-0.678-3.052-4.069-1.695-7.46
		c1.356-3.052,4.069-5.086,6.103-4.408C282.391,40.237,283.07,43.628,281.713,46.68z"/>
	<path style="fill:#FFD05B;" d="M226.105,46.68c1.356,3.052,4.069,5.086,6.103,4.408c2.034-0.678,3.052-4.069,1.695-7.46
		c-1.356-3.052-4.069-5.086-6.103-4.408C225.427,40.237,224.749,43.628,226.105,46.68z"/>
</g>
<g>
	<path style="fill:#324A5E;" d="M233.226,12.433c0,0,20.344-30.517,48.826,4.069l-3.052-1.017c0,0,5.425,5.764,0.678,25.091
		c0,0-3.052,0.339-4.069,7.121c0,0-0.678-15.936-4.747-18.988c0,0-26.787,1.695-33.568-4.408c0,0-6.781,11.189-4.069,26.787
		c0,0-5.086-9.833-7.799-15.258c-2.034-3.73-3.052-7.799-3.052-12.207C223.054,18.536,225.088,12.433,233.226,12.433z"/>
	<rect x="245.093" y="39.898" style="fill:#324A5E;" width="18.649" height="1.017"/>
</g>
<g>
	<path style="fill:#54C0EB;" d="M275.271,47.697c0,4.408-1.356,8.138-7.46,8.138c-6.103,0-11.189-6.103-11.189-10.511
		s5.086-6.103,11.189-6.103C273.915,39.22,275.271,42.95,275.271,47.697z"/>
	<path style="fill:#54C0EB;" d="M233.565,47.697c0,4.408,1.356,8.138,7.46,8.138c6.103,0,11.189-6.103,11.189-10.511
		s-5.086-6.103-11.189-6.103C234.921,39.22,233.565,42.95,233.565,47.697z"/>
</g>
<path style="fill:#324A5E;" d="M258.317,51.427c-0.339,0-0.678-0.339-0.678-0.678c0-2.034-1.356-3.391-3.391-3.391
	c-2.034,0-3.391,1.356-3.391,3.391c0,0.339-0.339,0.678-0.678,0.678s-0.678-0.339-0.678-0.678c0-2.374,2.034-4.408,4.408-4.408
	c2.374,0,4.408,2.034,4.408,4.408C258.995,51.087,258.656,51.427,258.317,51.427z"/>
</svg>