<svg xmlns="http://www.w3.org/2000/svg" width="128" height="128" viewBox="0 0 20 20"><g fill="none"><path fill="url(#fluentColorChatBubblesQuestion202)" d="M11.5 5a6.5 6.5 0 0 1 5.675 9.672l.796 2.082a1 1 0 0 1-1.204 1.32l-2.488-.697A6.5 6.5 0 1 1 11.5 5"/><path fill="url(#fluentColorChatBubblesQuestion200)" d="M8.538 2a6.5 6.5 0 0 0-5.674 9.672l-.796 2.082a1 1 0 0 0 1.204 1.32l2.487-.697A6.5 6.5 0 1 0 8.539 2"/><path fill="url(#fluentColorChatBubblesQuestion201)" d="M8.493 6.025c-.358.07-.75.302-1.058.846a.5.5 0 0 1-.87-.495c.441-.775 1.068-1.202 1.736-1.333a2.43 2.43 0 0 1 1.792.362c.484.32.875.843.887 1.47c.013.655-.385 1.245-1.119 1.679c-.498.295-.692.495-.775.628c-.07.111-.086.213-.086.442a.5.5 0 0 1-1 0c0-.272.014-.611.237-.97c.21-.337.569-.638 1.115-.96c.535-.317.632-.619.629-.799c-.005-.206-.142-.46-.44-.656a1.43 1.43 0 0 0-1.048-.214m.257 6.599a.75.75 0 1 1 0-1.5a.75.75 0 0 1 0 1.5"/><defs><linearGradient id="fluentColorChatBubblesQuestion200" x1="2" x2="15.112" y1="2" y2="15.038" gradientUnits="userSpaceOnUse"><stop stop-color="#0FAFFF"/><stop offset="1" stop-color="#2764E7"/></linearGradient><linearGradient id="fluentColorChatBubblesQuestion201" x1="6.892" x2="8.957" y1="5.134" y2="12.956" gradientUnits="userSpaceOnUse"><stop stop-color="#FDFDFD"/><stop offset="1" stop-color="#CCEAFF"/></linearGradient><radialGradient id="fluentColorChatBubblesQuestion202" cx="0" cy="0" r="1" gradientTransform="matrix(6 7 -7 6 8.5 8.5)" gradientUnits="userSpaceOnUse"><stop offset=".63" stop-color="#3D35B1"/><stop offset=".85" stop-color="#6553C9"/><stop offset="1" stop-color="#7660D3"/></radialGradient></defs></g></svg>